<?xml version="1.0" encoding="UTF-8" standalone="no"?>
<svg
   viewBox="0 0 511.99996 512.00001"
   version="1.1"
   id="svg64"
   sodipodi:docname="bzflag-logo-retrace-3-red-icon.svg"
   width="512"
   height="512"
   inkscape:version="1.1 (c68e22c387, 2021-05-23)"
   xmlns:inkscape="http://www.inkscape.org/namespaces/inkscape"
   xmlns:sodipodi="http://sodipodi.sourceforge.net/DTD/sodipodi-0.dtd"
   xmlns:xlink="http://www.w3.org/1999/xlink"
   xmlns="http://www.w3.org/2000/svg"
   xmlns:svg="http://www.w3.org/2000/svg">
  <sodipodi:namedview
     id="namedview66"
     pagecolor="#505050"
     bordercolor="#eeeeee"
     borderopacity="1"
     inkscape:pageshadow="0"
     inkscape:pageopacity="0"
     inkscape:pagecheckerboard="0"
     showgrid="true"
     fit-margin-top="0"
     fit-margin-left="0"
     fit-margin-right="0"
     fit-margin-bottom="0"
     inkscape:object-nodes="false"
     inkscape:snap-others="false"
     inkscape:zoom="32"
     inkscape:cx="170.67187"
     inkscape:cy="310.65625"
     inkscape:window-width="1920"
     inkscape:window-height="1103"
     inkscape:window-x="0"
     inkscape:window-y="27"
     inkscape:window-maximized="1"
     inkscape:current-layer="layer2">
    <inkscape:grid
       type="xygrid"
       id="grid384"
       spacingx="16"
       spacingy="16"
       empspacing="1"
       dotted="true" />
  </sodipodi:namedview>
  <defs
     id="defs60">
    <linearGradient
       inkscape:collect="always"
       id="linearGradient18855">
      <stop
         style="stop-color:#ffffff;stop-opacity:0.09441497"
         offset="0"
         id="stop18851" />
      <stop
         style="stop-color:#ffffff;stop-opacity:0.18968141"
         offset="1"
         id="stop18853" />
    </linearGradient>
    <linearGradient
       inkscape:collect="always"
       id="linearGradient15648">
      <stop
         style="stop-color:#ff0000;stop-opacity:1"
         offset="0"
         id="stop15644" />
      <stop
         style="stop-color:#ff6161;stop-opacity:1"
         offset="0.49999997"
         id="stop17572" />
      <stop
         style="stop-color:#ffffff;stop-opacity:1"
         offset="1"
         id="stop15646" />
    </linearGradient>
    <linearGradient
       id="linearGradient14354"
       inkscape:swatch="solid">
      <stop
         style="stop-color:#ff0000;stop-opacity:1;"
         offset="0"
         id="stop14352" />
    </linearGradient>
    <linearGradient
       id="linearGradient14294"
       inkscape:swatch="solid">
      <stop
         style="stop-color:#e1a0a0;stop-opacity:1;"
         offset="0"
         id="stop14292" />
    </linearGradient>
    <linearGradient
       id="linearGradient14234"
       inkscape:swatch="solid">
      <stop
         style="stop-color:#ff0000;stop-opacity:1;"
         offset="0"
         id="stop14232" />
    </linearGradient>
    <style
       id="style58">.cls-1{fill:#fff}</style>
    <radialGradient
       inkscape:collect="always"
       xlink:href="#linearGradient15648"
       id="radialGradient15650"
       cx="181.21887"
       cy="336.27707"
       fx="181.21887"
       fy="336.27707"
       r="256"
       gradientUnits="userSpaceOnUse"
       gradientTransform="matrix(2.3207821,-0.58019546,0.24999998,0.99999998,-344.63878,72.865298)" />
    <linearGradient
       inkscape:collect="always"
       xlink:href="#linearGradient18855"
       id="linearGradient18857"
       x1="224"
       y1="0"
       x2="352"
       y2="272"
       gradientUnits="userSpaceOnUse"
       gradientTransform="matrix(-1,0,0,1,512,0)" />
  </defs>
  <g
     inkscape:groupmode="layer"
     id="layer3"
     inkscape:label="Background"
     sodipodi:insensitive="true">
    <path
       id="path8737"
       style="fill:url(#radialGradient15650);fill-opacity:1;stroke:none;stroke-width:0;stroke-linejoin:miter;stroke-miterlimit:4;stroke-dasharray:none;stroke-opacity:1;paint-order:normal"
       d="m 4,33.65625 c 0,148.22917 0,296.45833 0,444.6875 9.885417,9.88542 19.770833,19.77083 29.65625,29.65625 148.22917,0 296.45833,0 444.6875,0 9.88542,-9.88542 19.77083,-19.77083 29.65625,-29.65625 0,-148.22917 0,-296.45833 0,-444.6875 C 498.11458,23.770833 488.22917,13.885417 478.34375,4 330.11458,4 181.88542,4 33.65625,4 23.770833,13.885417 13.885417,23.770833 4,33.65625 Z" />
  </g>
  <g
     inkscape:groupmode="layer"
     id="layer2"
     inkscape:label="Redraw"
     style="display:inline">
    <g
       fill="#ffffff"
       fill-opacity="0.99979"
       stroke-width="0"
       id="g868"
       transform="matrix(3.7794346,0,0,3.7794346,-8.5564e-7,-9.0879599e-6)"
       style="fill:#1a1a1a">
      <path
         transform="scale(0.26458)"
         d="m 232,16 v 203.36 a 88,88 0 0 1 24,-3.3613 88,88 0 0 1 24,3.3418 v -203.34 z"
         id="path858"
         style="fill:#1a1a1a" />
      <path
         transform="scale(0.26458)"
         d="m 256,240 a 64,64 0 0 0 -64,64 v 80 h 128 v -80 a 64,64 0 0 0 -64,-64 z"
         id="path860"
         style="fill:#1a1a1a" />
      <path
         transform="scale(0.26458)"
         d="m 160,168 -24,24 v 224 l 24,24 h 24 v 24 h 56 v -24 h 48 v 24 h 40 v -24 h 24 l 24,-24 V 192 l -24,-24 h -48 v 62.256 c 24.94651,16.23497 39.99582,43.97988 40,73.744 v 8 80 l -16,16 H 184 l -16,-16 v -80 -8 c 0.0285,-29.73857 15.07488,-57.45097 40,-73.672 V 168 Z"
         id="path862"
         style="fill:#1a1a1a"
         sodipodi:nodetypes="ccccccccccccccccccccccccccccc" />
      <path
         d="m 95.25,35.983 10.583,10.583 v 65.617 L 95.25,122.766 v 4.2333 l 4.2333,4.2333 h 14.817 l 4.2333,-4.2333 V 19.0493 L 114.3003,14.816 H 99.4833 L 95.25,19.0493 Z"
         id="path864"
         style="fill:#1a1a1a" />
      <path
         d="M 40.217,35.983 29.634,46.566 v 65.617 l 10.583,10.583 v 4.2333 l -4.2333,4.2333 h -14.817 l -4.2333,-4.2333 v -107.95 l 4.2333,-4.2333 h 14.817 l 4.2333,4.2333 z"
         id="path866"
         style="fill:#1a1a1a" />
    </g>
  </g>
  <g
     inkscape:groupmode="layer"
     id="layer4"
     inkscape:label="Shine"
     sodipodi:insensitive="true">
    <path
       style="fill:url(#linearGradient18857);fill-opacity:1;stroke:none;stroke-width:0;stroke-linejoin:miter;stroke-miterlimit:4;stroke-dasharray:none;stroke-opacity:1;paint-order:normal"
       d="m 512,256 c 0,0 -82.43198,-32 -128,-32 -45.56802,0 -85.33333,16 -128,32 -42.66667,16 -82.43198,32 -128,32 C 82.43198,288 0,256 0,256 V 32 L 32,0 h 448 l 32,32 z"
       id="path18146"
       sodipodi:nodetypes="cssscccccc" />
  </g>
  <g
     inkscape:groupmode="layer"
     id="layer6"
     inkscape:label="Border"
     sodipodi:insensitive="true"
     style="display:inline">
    <path
       id="path8737-2"
       style="fill:none;fill-opacity:1;stroke:#000000;stroke-width:8;stroke-linejoin:miter;stroke-miterlimit:4;stroke-dasharray:none;stroke-opacity:1;paint-order:normal"
       d="m 4,33.65625 c 0,148.22917 0,296.45833 0,444.6875 9.885417,9.88542 19.770833,19.77083 29.65625,29.65625 148.22917,0 296.45833,0 444.6875,0 9.88542,-9.88542 19.77083,-19.77083 29.65625,-29.65625 0,-148.22917 0,-296.45833 0,-444.6875 C 498.11458,23.770833 488.22917,13.885417 478.34375,4 330.11458,4 181.88542,4 33.65625,4 23.770833,13.885417 13.885417,23.770833 4,33.65625 Z" />
  </g>
</svg>
